<?xml version="1.0" encoding="iso-8859-1"?>
<!-- Generator: Adobe Illustrator 19.0.0, SVG Export Plug-In . SVG Version: 6.00 Build 0)  -->
<svg xmlns="http://www.w3.org/2000/svg" xmlns:xlink="http://www.w3.org/1999/xlink" version="1.1" id="Capa_1" x="0px" y="0px" viewBox="0 0 491.052 491.052" style="enable-background:new 0 0 491.052 491.052;" xml:space="preserve" width="512px" height="512px">
<g>
	<g>
		<path d="M294.626,207.627c-8.9,6.5-18,12.9-25.6,20.8c-12.2,12.7-23.2,26.5-34.6,39.9c-4.1,1.9-7.9,4.1-11.6,6.4    c-10.9-10.9-22.5-21.2-32.6-32.9c-0.9-1.1-5-0.2-7.2,1.1c-4.4,2.5-6.1,6.7-6.4,10.8c-1,13.6,3.4,24.4,10.3,33    c7,8.7,13.8,17.7,21,26.3c5.6,6.8,15.6,7.7,22.3,2.1l2.6-2.1c11.9-9.8,23.2-20.1,32.7-32.4c2.6-2.1,5.2-4.1,7.7-6.2    c15.9-13.6,31-28,42.8-45.6c3.3-5,3.6-11.7-3.2-17.8C306.926,205.427,299.626,204.027,294.626,207.627z" fill="#F0F0F0"/>
		<path d="M458.926,253.127L458.926,253.127c0-0.1,0-0.2,0-0.3c-0.8-31.7-3.8-58.5-9.5-66.1c0,0,0-0.1-0.1-0.1    c-1.4-2.3-2.9-2.8-4.7-2.4c-0.7,0.3-1.5,0.7-2.2,2.4l0,0l0,0c-6.7,5.3-11.8,29.8-13.4,64.8c0,0,0,0,0,0.1l-0.1,0.9    c-0.1,1.7-0.2,3.9-0.4,6.1l-0.7,14.3c-0.3,4-0.8,8.5-1.5,12.7c-1.5,8.5-3.7,16.8-6.9,24.8c-3.1,8.1-7,15.9-11.5,23.4    c-2.3,3.7-4.7,7.5-7.2,11l-1.8,2.6l-2.1,2.9l-1.1,1.4l-0.9,1.2l-2.1,2.6c-22.3,28.2-51.3,50.6-82.9,68.9    c-12.9,7.5-25.7,13.9-39.6,20.1l-21,9.3l-2.6,1.2h-0.1l-1.6-0.6l-5.2-2c-27.8-10.8-54.4-23.9-78.9-40.3    c-12.1-8.2-23.9-17.4-34.6-27c-2.6-2.2-5.5-5.1-8.3-7.7c-2.4-2.3-5.1-5-7.6-7.7c-5-5.3-9.7-10.7-14-16.4    c-8.7-11.4-15.9-23.7-21.2-36.7c-1.3-3.2-2.5-6.6-3.6-9.9l-1.5-4.9l-1.5-5.6c-1.6-6.5-3-13.9-3.8-20.9c-0.3,1.3-0.5,2.8-0.8,4.1    c0.2-1.5,0.5-2.9,0.8-4.1c-0.2-3.2-0.3-6.4-0.3-9.6s0.1-6.1,0.3-9.7l0.9-20.7c0.5-13.8,1-27.7,1.5-41.5c0.9-27.7,1.5-55.5,2-83.3    l0.1-4.9l5.4-0.4c14.8-1.4,29.6-3.8,44-7.4c29-7,56.6-18.5,82.3-32.4c12.9-7,25.3-14.5,37.6-22.6l8-5.4l5.6,3.9    c24.1,16.1,49.8,30.7,77.3,41.8c13.9,5.6,27.6,10.2,42.6,14.1l10.6,2.5c3.8,0.8,7.6,1.5,11.3,2.2c7.4,1.2,14.7,2.1,21.7,3l6.9,0.8    v2.8c-0.1,14-0.2,27.9-0.3,41.8c-0.1,9.9,3.4,25.5,5.8,30.4c4.9,9.7,9-2.9,12.1-21.8c2.6-15.6,4.8-32,6.7-49    c0.5-4.3,0.9-8.4,1.3-13.1c0.1-2.7,0.1-6-2.2-9.9c-1.2-1.8-2.9-3.4-4.6-4.3c-1.7-1-3.2-1.6-4.7-2c-3-0.9-5-1.2-7.2-1.7l-6.6-1.3    c-4.4-0.9-8.8-1.7-13.2-2.6c-34.5-6.9-68.7-20.7-101-38.8c-9.8-5.5-19.3-11.4-28.6-17.6c-4.7-3.1-9.3-6.3-13.9-9.6    c-2.4-1.6-4.3-3.3-8.4-5.7l-1.9-1c-0.7-0.3-1.6-0.7-2.5-1c-1-0.3-2.2-0.6-3.3-0.9c-1.3-0.2-2.6-0.4-4-0.3c-2.7,0-5.3,0.7-6.9,1.3    c-0.9,0.3-1.8,0.7-2.3,1c-0.6,0.3-1.4,0.7-1.8,0.9c-2.2,1.2-3.4,2.1-4.8,3l-3.6,2.4l-7.3,4.7c-4.8,3-9.4,5.9-14.3,8.7    c-9.6,5.8-19.5,11-29.4,15.9c-19.9,9.8-40.6,17.7-61.7,23c-10.6,2.8-21.3,4.6-32,6.2c-5.4,0.6-10.8,1.3-16.2,1.6l-4.1,0.3    l-2.1,0.1c-0.9,0.1-2.3,0.2-3.5,0.4c-2.3,0.4-5.5,0.8-10,3.1c-2.2,1.2-4.7,3-6.8,5.4c-2,2.3-3.5,5-4.3,7.1    c-1.6,4.4-1.9,7.3-2.1,9.5c-0.2,2.3-0.2,4.1-0.2,5.8l-0.1,8.7l-0.1,17.4l-0.2,34.8c0,23.2-0.1,46.4-0.1,69.7v17.4    c0.1,5.8-0.1,11.3,0.3,18.2c0.3,6.4,1,12.8,1.9,19.1c0.5,3.2,1,6.3,1.6,9.4l1,4.7l0.5,2.3l0.6,2.6c1.2,5.1,3.5,12.6,5.6,18.4    c2.3,6.1,4.8,12.1,7.7,17.9c5.7,11.6,12.8,22.4,20.5,32.4c7.4,10.1,15.5,19.5,24.2,28.3c2.1,2.1,3.9,4,6.2,6.2l6.9,6.4    c4.6,4.1,9.2,8.1,13.9,11.9c30.1,24.4,64.1,43.3,99.2,57.7c2.2,0.9,4.4,1.8,6.6,2.7l7.3,2.8l0.4,0.1l1.6,0.5    c1.3,0.3,1.8,0.4,2.7,0.6c1.5,0.3,3,0.4,4.4,0.4c2.7,0.1,5.2-0.1,7.8-0.6c1.3-0.2,2.6-0.6,3.9-1c0.7-0.2,1.4-0.4,2.1-0.7l1.4-0.6    l3.1-1.3c8.3-3.5,16.8-7.1,25.4-10.9c8.6-3.9,17.2-7.9,26-12.6l6-3.3l6.4-3.6c4.2-2.4,8.3-4.8,12.4-7.4    c32.6-20.3,62.9-46.5,85.5-79c11.3-16.1,20.9-34.2,26.9-53.9c3-9.8,5.1-19.9,6-30.2c0.5-5,0.8-10.4,0.7-15.2v-13.6    C458.926,255.827,458.926,254.427,458.926,253.127z M422.826,97.127L422.826,97.127L422.826,97.127    C422.826,97.127,422.826,96.727,422.826,97.127z M69.726,97.127L69.726,97.127L69.726,97.127L69.726,97.127L69.726,97.127z     M245.926,461.927c0.1,0.6-0.5,0.8-0.8,1.2c1.2-2.9-2,4.6,0.9-2.3C245.926,461.227,245.926,461.527,245.926,461.927z     M247.826,460.027l-0.1-0.2c0.1,0.1,0.1,0.2,0.1,0.3V460.027z" fill="#F0F0F0"/>
	</g>
</g>
<g>
</g>
<g>
</g>
<g>
</g>
<g>
</g>
<g>
</g>
<g>
</g>
<g>
</g>
<g>
</g>
<g>
</g>
<g>
</g>
<g>
</g>
<g>
</g>
<g>
</g>
<g>
</g>
<g>
</g>
</svg>
